<svg width="20" height="20" viewBox="0 0 20 20" fill="none" xmlns="http://www.w3.org/2000/svg">
<path fill-rule="evenodd" clip-rule="evenodd" d="M10.0201 2.67029C5.95908 2.67029 2.67041 5.95374 2.67041 9.99982C2.67041 14.0459 5.95908 17.3294 10.0201 17.3294C13.0339 17.3294 15.6245 15.5206 16.7589 12.9307C16.9394 12.5187 17.4196 12.331 17.8316 12.5114C18.2436 12.6919 18.4313 13.1722 18.2509 13.5842C16.8656 16.7468 13.7019 18.9582 10.0201 18.9582C5.06333 18.9582 1.04163 14.9493 1.04163 9.99982C1.04163 5.05039 5.06333 1.0415 10.0201 1.0415C13.9494 1.0415 17.2886 3.55974 18.506 7.0667C18.7314 7.71575 18.8839 8.3984 18.9543 9.10482C18.9799 9.36215 18.8817 9.6164 18.6898 9.78982C18.4979 9.96315 18.2349 10.0351 17.9814 9.98349L15.9808 9.57624C15.6799 9.51507 15.439 9.28982 15.3578 8.99374C15.2766 8.69765 15.3688 8.38107 15.5962 8.17485L16.5102 7.34639C16.6396 7.22905 16.7044 7.17039 16.72 7.08828C16.7358 7.00618 16.699 6.93126 16.6254 6.78145C15.4304 4.34677 12.9213 2.67029 10.0201 2.67029Z" fill="#808B9B"/>
<path fill-rule="evenodd" clip-rule="evenodd" d="M7.91671 8.54099V7.65625C7.91671 6.51319 8.87103 5.625 10 5.625C11.129 5.625 12.0834 6.51319 12.0834 7.65625V8.54099C12.1459 8.55999 12.2082 8.58274 12.2699 8.61016C12.7868 8.83949 13.1843 9.27308 13.3886 9.80166C13.4769 10.03 13.5108 10.2644 13.5265 10.5116C13.5417 10.7495 13.5417 11.0393 13.5417 11.3866V11.4259C13.5417 11.7732 13.5417 12.063 13.5265 12.3009C13.5108 12.5481 13.4769 12.7826 13.3886 13.0108C13.1843 13.5395 12.7868 13.973 12.2699 14.2023C12.043 14.3031 11.8107 14.3411 11.5727 14.3585C11.3464 14.375 11.0722 14.375 10.7509 14.375H9.24912C8.92795 14.375 8.6537 14.375 8.42737 14.3585C8.18941 14.3411 7.95704 14.3031 7.7301 14.2023C7.21329 13.973 6.81581 13.5395 6.61143 13.0108C6.52318 12.7826 6.48926 12.5481 6.47352 12.3009C6.45837 12.063 6.45837 11.7732 6.45837 11.4259V11.3866C6.45837 11.0393 6.45837 10.7495 6.47352 10.5116C6.48926 10.2644 6.52318 10.03 6.61143 9.80166C6.81581 9.27308 7.21328 8.83949 7.7301 8.61016C7.7919 8.58274 7.8541 8.55999 7.91671 8.54099ZM9.1667 7.65625C9.1667 7.24601 9.5182 6.875 10 6.875C10.4819 6.875 10.8334 7.24601 10.8334 7.65625V8.43749C10.8063 8.43749 10.7788 8.43749 10.7509 8.43749H9.24912C9.22128 8.43749 9.19378 8.43749 9.1667 8.43749V7.65625Z" fill="#808B9B"/>
</svg>
