<svg width="20" height="20" viewBox="0 0 20 20" fill="none" xmlns="http://www.w3.org/2000/svg">
<path fill-rule="evenodd" clip-rule="evenodd" d="M10.0002 6.875C8.67033 6.875 7.46153 6.90352 6.27118 6.95823C4.55613 7.03708 3.16357 8.36517 2.93726 10.046C2.8138 10.963 2.7085 11.9265 2.7085 12.9167C2.7085 13.9068 2.8138 14.8703 2.93726 15.7873C3.16357 17.4682 4.55613 18.7963 6.27118 18.8751C7.46153 18.9298 8.67033 18.9583 10.0002 18.9583C11.33 18.9583 12.5388 18.9298 13.7292 18.8751C15.4442 18.7963 16.8367 17.4682 17.0631 15.7873C17.1865 14.8703 17.2918 13.9068 17.2918 12.9167C17.2918 11.9265 17.1865 10.963 17.0631 10.046C16.8367 8.36517 15.4442 7.03708 13.7292 6.95824C12.5388 6.90352 11.33 6.875 10.0002 6.875ZM7.91683 12.0833C7.4566 12.0833 7.0835 12.4564 7.0835 12.9167C7.0835 13.3769 7.4566 13.75 7.91683 13.75H7.9243C8.38458 13.75 8.75766 13.3769 8.75766 12.9167C8.75766 12.4564 8.38458 12.0833 7.9243 12.0833H7.91683ZM12.076 12.0833C11.6157 12.0833 11.2427 12.4564 11.2427 12.9167C11.2427 13.3769 11.6157 13.75 12.076 13.75H12.0835C12.5437 13.75 12.9168 13.3769 12.9168 12.9167C12.9168 12.4564 12.5437 12.0833 12.0835 12.0833H12.076Z" fill="#808B9B"/>
<path fill-rule="evenodd" clip-rule="evenodd" d="M10.0001 2.70817C8.38925 2.70817 7.08341 4.014 7.08341 5.62484V7.70817C7.08341 8.1684 6.71031 8.5415 6.25008 8.5415C5.78985 8.5415 5.41675 8.1684 5.41675 7.70817V5.62484C5.41675 3.09353 7.46877 1.0415 10.0001 1.0415C12.5314 1.0415 14.5834 3.09353 14.5834 5.62484V7.70817C14.5834 8.1684 14.2103 8.5415 13.7501 8.5415C13.2898 8.5415 12.9167 8.1684 12.9167 7.70817V5.62484C12.9167 4.014 11.6109 2.70817 10.0001 2.70817Z" fill="#808B9B"/>
</svg>
