<svg width="20" height="20" viewBox="0 0 20 20" fill="none" xmlns="http://www.w3.org/2000/svg">
<path fill-rule="evenodd" clip-rule="evenodd" d="M16.5701 3.4301C16.9769 3.8369 16.9769 4.49644 16.5701 4.90324L4.90342 16.5699C4.49662 16.9767 3.83708 16.9767 3.43028 16.5699C3.02348 16.1631 3.02348 15.5036 3.43028 15.0968L15.0969 3.4301C15.5037 3.0233 16.1632 3.0233 16.5701 3.4301Z" fill="#F97066"/>
<path fill-rule="evenodd" clip-rule="evenodd" d="M3.43028 3.4301C3.83708 3.0233 4.49662 3.0233 4.90342 3.4301L16.5701 15.0968C16.9769 15.5036 16.9769 16.1631 16.5701 16.5699C16.1632 16.9767 15.5037 16.9767 15.0969 16.5699L3.43028 4.90324C3.02348 4.49644 3.02348 3.8369 3.43028 3.4301Z" fill="#F97066"/>
</svg>
