<svg width="20" height="20" viewBox="0 0 20 20" fill="none" xmlns="http://www.w3.org/2000/svg">
<path d="M6.25297 10.9563C6.01372 11.0846 5.77925 11.2188 5.60695 11.3254C5.19478 11.5664 4.41842 12.0202 3.85757 12.5903C3.49563 12.9582 3.01983 13.5699 2.93127 14.4112C2.90392 14.6711 2.91628 14.9198 2.96103 15.1561C3.00581 15.3926 3.02821 15.5108 2.96838 15.5728C2.90855 15.6348 2.80885 15.6197 2.60945 15.5893C1.75626 15.4595 1.17969 14.9944 0.706531 14.4872C0.352728 14.1081 0.169985 13.6719 0.215308 13.2055C0.257863 12.7675 0.491988 12.4148 0.726143 12.157C1.09571 11.75 1.64045 11.4052 1.96667 11.1986C2.03637 11.1545 2.09611 11.1167 2.14202 11.0859C3.3732 10.2612 4.84158 10.0178 6.2127 10.356C6.53596 10.4357 6.69759 10.4755 6.71188 10.5892C6.72616 10.7027 6.56844 10.7872 6.25297 10.9563Z" fill="#808B9B"/>
<path d="M5.40638 4.40526C5.56447 4.42903 5.64351 4.44092 5.68412 4.50658C5.72474 4.57226 5.69643 4.65947 5.63982 4.8339C5.49509 5.27986 5.41687 5.75579 5.41687 6.25C5.41687 7.28329 5.7588 8.23672 6.3357 9.00333C6.44574 9.14958 6.50077 9.22267 6.48381 9.29792C6.46686 9.37317 6.39611 9.41017 6.25462 9.48425C5.87959 9.68058 5.45287 9.79167 5.0002 9.79167C3.50443 9.79167 2.29187 8.57908 2.29187 7.08333C2.29187 5.58756 3.50443 4.375 5.0002 4.375C5.13825 4.375 5.27389 4.38533 5.40638 4.40526Z" fill="#808B9B"/>
<path d="M13.7478 10.9563C13.987 11.0846 14.2215 11.2188 14.3938 11.3254C14.806 11.5664 15.5824 12.0202 16.1432 12.5903C16.5051 12.9582 16.9809 13.5699 17.0695 14.4112C17.0969 14.6711 17.0844 14.9198 17.0397 15.1561C16.9949 15.3926 16.9725 15.5108 17.0324 15.5728C17.0922 15.6348 17.1919 15.6197 17.3914 15.5893C18.2445 15.4595 18.8211 14.9944 19.2942 14.4872C19.648 14.1081 19.8308 13.6719 19.7854 13.2055C19.7429 12.7675 19.5088 12.4148 19.2746 12.157C18.905 11.75 18.3604 11.4052 18.0341 11.1986C17.9644 11.1545 17.9046 11.1167 17.8588 11.0859C16.6275 10.2612 15.1592 10.0178 13.788 10.356C13.4648 10.4357 13.3032 10.4755 13.2889 10.5892C13.2746 10.7027 13.4324 10.7872 13.7478 10.9563Z" fill="#808B9B"/>
<path d="M13.6649 9.00333C13.5548 9.14958 13.4998 9.22267 13.5168 9.29792C13.5337 9.37317 13.6045 9.41017 13.746 9.48425C14.121 9.68058 14.5477 9.79167 15.0004 9.79167C16.4962 9.79167 17.7087 8.57908 17.7087 7.08333C17.7087 5.58756 16.4962 4.375 15.0004 4.375C14.8623 4.375 14.7267 4.38533 14.5942 4.40526C14.4362 4.42903 14.3571 4.44092 14.3165 4.50658C14.2759 4.57226 14.3042 4.65947 14.3608 4.8339C14.5055 5.27986 14.5837 5.75579 14.5837 6.25C14.5837 7.28329 14.2418 8.23672 13.6649 9.00333Z" fill="#808B9B"/>
<path d="M6.40955 12.0612C8.60767 10.7019 11.3958 10.7019 13.5939 12.0612C13.6588 12.1013 13.7408 12.1493 13.8352 12.2044C14.2621 12.4543 14.9397 12.8508 15.4022 13.3209C15.6926 13.616 15.9823 14.0185 16.035 14.5203C16.0916 15.057 15.8638 15.5539 15.4291 15.9839C14.7111 16.6943 13.8216 17.2918 12.6554 17.2918H7.34811C6.18189 17.2918 5.29245 16.6943 4.57443 15.9839C4.13979 15.5539 3.91196 15.057 3.96846 14.5203C4.02128 14.0185 4.31094 13.616 4.60138 13.3209C5.06379 12.8508 5.74145 12.4543 6.16834 12.2044C6.26265 12.1493 6.34475 12.1013 6.40955 12.0612Z" fill="#808B9B"/>
<path d="M6.45996 6.25016C6.45996 4.29415 8.04562 2.7085 10.0017 2.7085C11.9577 2.7085 13.5433 4.29415 13.5433 6.25016C13.5433 8.20617 11.9577 9.79183 10.0017 9.79183C8.04562 9.79183 6.45996 8.20617 6.45996 6.25016Z" fill="#808B9B"/>
</svg>
