<svg width="49" height="48" viewBox="0 0 49 48" fill="none" xmlns="http://www.w3.org/2000/svg">
<path opacity="0.2" d="M24.6144 3.5C28.9958 3.49998 32.4372 3.49996 35.124 3.86118C37.8772 4.23136 40.0618 5.00544 41.7782 6.72182C43.4946 8.43822 44.2686 10.6227 44.6388 13.376C45 16.0629 45 19.5042 45 23.8856V24.1144C45 28.4958 45 31.9372 44.6388 34.624C44.2686 37.3772 43.4946 39.5618 41.7782 41.2782C40.0618 42.9946 37.8772 43.7686 35.124 44.1388C32.4372 44.5 28.9958 44.5 24.6144 44.5H24.3856C20.0042 44.5 16.5629 44.5 13.876 44.1388C11.1227 43.7686 8.93822 42.9946 7.22182 41.2782C5.50542 39.5618 4.73136 37.3772 4.36118 34.624C3.99996 31.9372 3.99998 28.4958 4 24.1144V23.8856C3.99998 19.5042 3.99996 16.0629 4.36118 13.376C4.73136 10.6227 5.50544 8.43822 7.22182 6.72182C8.93822 5.00544 11.1227 4.23136 13.876 3.86118C16.5629 3.49996 20.0042 3.49998 24.3856 3.5H24.6144Z" fill="#F97066"/>
<path fill-rule="evenodd" clip-rule="evenodd" d="M22.5 32.999C22.5 31.8944 23.3914 30.999 24.491 30.999H24.509C25.6086 30.999 26.5 31.8944 26.5 32.999C26.5 34.1036 25.6086 34.999 24.509 34.999H24.491C23.3914 34.999 22.5 34.1036 22.5 32.999Z" fill="#F97066"/>
<path fill-rule="evenodd" clip-rule="evenodd" d="M24.5002 26.9991C23.3956 26.9991 22.5002 26.1037 22.5002 24.9991V16.999C22.5002 15.8945 23.3956 14.999 24.5002 14.999C25.6048 14.999 26.5002 15.8945 26.5002 16.999V24.9991C26.5002 26.1037 25.6048 26.9991 24.5002 26.9991Z" fill="#F97066"/>
</svg>
