<svg width="20" height="20" viewBox="0 0 20 20" fill="none" xmlns="http://www.w3.org/2000/svg">
<path fill-rule="evenodd" clip-rule="evenodd" d="M9.65621 1.04183C10.1312 1.0412 10.5516 1.04063 10.9478 1.18119C11.0295 1.21016 11.1095 1.24348 11.1876 1.28104C11.5666 1.46327 11.8635 1.76249 12.199 2.10053L16.1846 6.10691C16.5741 6.4972 16.9197 6.84358 17.1065 7.29672C17.2932 7.74984 17.2925 8.24047 17.2916 8.79325L17.2915 11.6885C17.2915 12.3648 17.2915 12.9815 17.2796 13.5414L15.2246 11.7422C14.48 11.0597 13.3226 11.0891 12.6139 11.8182C12.1005 12.3464 11.9608 13.0995 12.1902 13.7501H9.79171C8.75621 13.7501 7.91671 14.5896 7.91671 15.6251C7.91671 16.6606 8.75621 17.5001 9.79171 17.5001H12.1902C12.0257 17.9664 12.051 18.4854 12.2675 18.9366C11.6166 18.9584 10.8824 18.9584 10.0592 18.9584C8.58188 18.9584 7.27258 18.9584 6.33606 18.8319C5.36373 18.7005 4.54506 18.4193 3.89485 17.7657C3.24464 17.1122 2.96497 16.2892 2.83425 15.3118C2.70834 14.3705 2.70836 13.1735 2.70837 11.6885V7.87722C2.70836 6.59919 2.70835 5.56874 2.80357 4.74888C2.90211 3.90058 3.11186 3.17374 3.60572 2.55803C3.787 2.33202 3.99181 2.12615 4.21664 1.94392C4.82917 1.4475 5.55225 1.23666 6.39616 1.13762C7.21179 1.04189 8.38479 1.04182 9.65621 1.04183ZM14.9593 7.17875C15.4744 7.6965 15.5622 7.80515 15.6095 7.92001C14.4699 7.92002 13.9294 7.91937 13.207 7.82223C12.4568 7.72139 11.8253 7.50564 11.3237 7.00405C10.822 6.50245 10.6063 5.87089 10.5055 5.1208C10.4085 4.39981 10.4085 3.86004 10.4085 2.72517V2.71818C10.56 2.76376 10.6778 2.87494 11.1219 3.32137L14.9593 7.17875Z" fill="#808B9B"/>
<path d="M13.3608 12.5442C13.6816 12.2142 14.2092 12.2067 14.5392 12.5275L15.9367 13.6611C16.2284 13.9082 16.5342 14.1872 16.7733 14.4678C16.8931 14.6085 17.013 14.7692 17.1065 14.9436C17.1963 15.1114 17.2917 15.3478 17.2917 15.6251C17.2917 15.9023 17.1963 16.1387 17.1065 16.3066C17.013 16.4811 16.8931 16.6417 16.7733 16.7823C16.5342 17.063 16.2284 17.342 15.9367 17.5892L14.5392 18.7227C14.2092 19.0434 13.6816 19.0359 13.3608 18.7059C13.04 18.3759 13.0475 17.8483 13.3775 17.5275L14.6904 16.4584H9.79171C9.33146 16.4584 8.95837 16.0853 8.95837 15.6251C8.95837 15.1648 9.33146 14.7917 9.79171 14.7917H14.6904C14.6904 14.7917 13.543 13.8835 13.3775 13.7227C13.0475 13.4018 13.04 12.8742 13.3608 12.5442Z" fill="#808B9B"/>
</svg>
