<svg width="16" height="16" viewBox="0 0 16 16" fill="none" xmlns="http://www.w3.org/2000/svg">
<path fill-rule="evenodd" clip-rule="evenodd" d="M8.06684 1.99872C8.06751 2.36691 7.76957 2.66592 7.40137 2.66659C6.17383 2.66879 5.30167 2.68623 4.63892 2.7935C3.99566 2.89762 3.62403 3.07581 3.35015 3.34968C3.05531 3.64452 2.8705 4.05363 2.7706 4.79667C2.66813 5.55889 2.66671 6.56665 2.66671 7.99972C2.66671 9.43285 2.66812 10.4406 2.7706 11.2029C2.8705 11.9459 3.05531 12.355 3.35015 12.6498C3.64499 12.9447 4.05409 13.1295 4.79713 13.2294C5.55935 13.3319 6.56711 13.3333 8.00024 13.3333C9.43331 13.3333 10.4411 13.3319 11.2033 13.2294C11.9463 13.1295 12.3554 12.9447 12.6503 12.6498C12.9242 12.3759 13.1023 12.0043 13.2064 11.3611C13.3137 10.6983 13.3312 9.82612 13.3334 8.59859C13.334 8.23039 13.633 7.93245 14.0012 7.93312C14.3694 7.93379 14.6674 8.23279 14.6667 8.60099C14.6645 9.80652 14.6499 10.7879 14.5226 11.5741C14.3922 12.3797 14.1334 13.0523 13.5931 13.5927C13.0092 14.1765 12.2718 14.4311 11.381 14.5508C10.5196 14.6666 9.42191 14.6666 8.04964 14.6666H7.95084C6.57851 14.6666 5.48088 14.6666 4.61947 14.5508C3.72858 14.4311 2.99121 14.1765 2.40734 13.5926C1.82347 13.0088 1.56893 12.2714 1.44915 11.3805C1.33335 10.5191 1.33336 9.42145 1.33337 8.04912V7.95039C1.33336 6.57804 1.33335 5.48041 1.44916 4.619C1.56893 3.72811 1.82348 2.99074 2.40734 2.40687C2.94771 1.86651 3.62025 1.6077 4.42587 1.4773C5.21201 1.35005 6.19345 1.33543 7.39897 1.33325C7.76717 1.33259 8.06617 1.63053 8.06684 1.99872Z" fill="#707A8A"/>
<path fill-rule="evenodd" clip-rule="evenodd" d="M13.5348 1.41202C12.8374 1.2885 11.6708 1.33868 11.0852 1.37305C10.3121 1.41842 9.99536 2.3443 10.519 2.86799L11.3534 3.70239L9.53349 5.50847C9.49409 5.54761 9.46043 5.59041 9.43263 5.63578L6.86296 8.19412C6.60201 8.45392 6.60107 8.87605 6.86083 9.13692C7.12063 9.39785 7.54276 9.39879 7.80363 9.13905L10.4471 6.50729C10.461 6.49552 10.4746 6.48309 10.4878 6.47002L12.3114 4.66031L13.132 5.48086C13.6557 6.00459 14.5816 5.68778 14.6269 4.91468C14.6612 4.32906 14.7113 3.16271 14.588 2.46539C14.5427 2.20981 14.4282 1.98354 14.2632 1.80533L14.2574 1.79907C14.071 1.60059 13.8214 1.46277 13.5348 1.41202Z" fill="#707A8A"/>
</svg>
