<svg width="18" height="14" viewBox="0 0 18 14" fill="none" xmlns="http://www.w3.org/2000/svg">
<path fill-rule="evenodd" clip-rule="evenodd" d="M3.60034 2.59448C5.02171 1.48483 6.85795 0.541992 9.00008 0.541992C11.1422 0.541992 12.9784 1.48483 14.3998 2.59448C15.8225 3.70513 16.874 5.01678 17.4622 5.84158L17.5066 5.90341C17.7176 6.19683 17.9584 6.53183 17.9584 7.00033C17.9584 7.46883 17.7176 7.80383 17.5066 8.09724L17.4622 8.15908C16.874 8.98391 15.8225 10.2955 14.3998 11.4062C12.9784 12.5158 11.1422 13.4587 9.00008 13.4587C6.85795 13.4587 5.02171 12.5158 3.60034 11.4062C2.17769 10.2955 1.12613 8.98391 0.537923 8.15908L0.493573 8.09724C0.282615 7.80383 0.041748 7.46883 0.041748 7.00033C0.041748 6.53183 0.282615 6.19683 0.493573 5.90341L0.537923 5.84158C1.12613 5.01678 2.17769 3.70513 3.60034 2.59448ZM6.08341 7.00033C6.08341 8.61116 7.38925 9.91699 9.00008 9.91699C10.6109 9.91699 11.9167 8.61116 11.9167 7.00033C11.9167 5.38949 10.6109 4.08366 9.00008 4.08366C7.38925 4.08366 6.08341 5.38949 6.08341 7.00033Z" fill="#61F0FE"/>
</svg>
