<svg width="20" height="20" viewBox="0 0 20 20" fill="none" xmlns="http://www.w3.org/2000/svg">
<path d="M2.42688 7.1925C1.92021 7.1925 1.66687 6.93618 1.66687 6.42354V4.35809C1.66687 3.46992 1.89636 2.79932 2.35535 2.34629C2.81434 1.89326 3.4909 1.66675 4.38504 1.66675H6.44155C6.96015 1.66675 7.21944 1.92307 7.21944 2.4357C7.21944 2.94238 6.96015 3.19572 6.44155 3.19572H4.44763C4.04229 3.19572 3.73232 3.30301 3.51773 3.51761C3.30314 3.72624 3.19584 4.04515 3.19584 4.47433V6.42354C3.19584 6.93618 2.93952 7.1925 2.42688 7.1925ZM17.5735 7.1925C17.0668 7.1925 16.8135 6.93618 16.8135 6.42354V4.47433C16.8135 4.04515 16.7032 3.72624 16.4827 3.51761C16.2621 3.30301 15.9522 3.19572 15.5528 3.19572H13.5499C13.0432 3.19572 12.7899 2.94238 12.7899 2.4357C12.7899 1.92307 13.0432 1.66675 13.5499 1.66675H15.6154C16.5155 1.66675 17.192 1.89326 17.6451 2.34629C18.104 2.79932 18.3335 3.46992 18.3335 4.35809V6.42354C18.3335 6.93618 18.0802 7.1925 17.5735 7.1925ZM4.38504 18.3334C3.4909 18.3334 2.81434 18.1069 2.35535 17.6539C1.89636 17.2068 1.66687 16.5362 1.66687 15.6421V13.5856C1.66687 13.0729 1.92021 12.8166 2.42688 12.8166C2.93952 12.8166 3.19584 13.0729 3.19584 13.5856V15.5348C3.19584 15.964 3.30314 16.2829 3.51773 16.4915C3.73232 16.7061 4.04229 16.8134 4.44763 16.8134H6.44155C6.96015 16.8134 7.21944 17.0667 7.21944 17.5734C7.21944 18.0801 6.96015 18.3334 6.44155 18.3334H4.38504ZM13.5499 18.3334C13.0432 18.3334 12.7899 18.0801 12.7899 17.5734C12.7899 17.0667 13.0432 16.8134 13.5499 16.8134H15.5528C15.9522 16.8134 16.2621 16.7061 16.4827 16.4915C16.7032 16.2829 16.8135 15.964 16.8135 15.5348V13.5856C16.8135 13.0729 17.0668 12.8166 17.5735 12.8166C18.0802 12.8166 18.3335 13.0729 18.3335 13.5856V15.6421C18.3335 16.5302 18.104 17.2008 17.6451 17.6539C17.192 18.1069 16.5155 18.3334 15.6154 18.3334H13.5499ZM6.7992 9.43678C6.60249 9.43678 6.43857 9.37121 6.30743 9.24007C6.17629 9.10893 6.11072 8.93904 6.11072 8.73041V7.58592C6.11072 7.38325 6.17629 7.21634 6.30743 7.0852C6.43857 6.95406 6.60249 6.88849 6.7992 6.88849C7.00783 6.88849 7.17772 6.95406 7.30886 7.0852C7.44 7.21038 7.50557 7.37729 7.50557 7.58592V8.73041C7.50557 8.93904 7.44 9.10893 7.30886 9.24007C7.17772 9.37121 7.00783 9.43678 6.7992 9.43678ZM9.3296 11.4307C9.10905 11.4307 8.93916 11.38 8.81995 11.2787C8.70073 11.1714 8.64112 11.0224 8.64112 10.8316C8.64112 10.6766 8.69477 10.5455 8.80206 10.4382C8.90936 10.3309 9.04348 10.2773 9.20442 10.2773H9.47266C9.51439 10.2773 9.54419 10.2683 9.56208 10.2504C9.58592 10.2266 9.59784 10.1938 9.59784 10.1521V7.43392C9.59784 7.26701 9.64851 7.13289 9.74985 7.03155C9.85714 6.92426 9.99722 6.87061 10.1701 6.87061C10.337 6.87061 10.4711 6.92426 10.5724 7.03155C10.6797 7.13289 10.7334 7.26701 10.7334 7.43392V10.0895C10.7334 10.5246 10.6172 10.8584 10.3847 11.0909C10.1582 11.3174 9.83032 11.4307 9.40113 11.4307C9.38921 11.4307 9.37729 11.4307 9.36537 11.4307C9.35345 11.4307 9.34152 11.4307 9.3296 11.4307ZM13.1744 9.43678C12.9657 9.43678 12.7959 9.37121 12.6647 9.24007C12.5395 9.10893 12.477 8.93904 12.477 8.73041V7.58592C12.477 7.37729 12.5395 7.21038 12.6647 7.0852C12.7959 6.95406 12.9657 6.88849 13.1744 6.88849C13.3771 6.88849 13.541 6.95406 13.6662 7.0852C13.7973 7.21634 13.8629 7.38325 13.8629 7.58592V8.73041C13.8629 8.93904 13.7973 9.10893 13.6662 9.24007C13.541 9.37121 13.3771 9.43678 13.1744 9.43678ZM9.9555 14.2472C9.4369 14.2472 8.92426 14.1459 8.41758 13.9432C7.91687 13.7405 7.49961 13.4455 7.1658 13.058C7.10619 12.9925 7.06148 12.9269 7.03168 12.8613C7.00783 12.7898 6.99591 12.7153 6.99591 12.6378C6.99591 12.4768 7.04956 12.3457 7.15686 12.2444C7.26415 12.1371 7.39827 12.0834 7.55922 12.0834C7.66651 12.0834 7.75294 12.1043 7.81851 12.146C7.89005 12.1877 7.96158 12.2414 8.03311 12.3069C8.27154 12.5573 8.56363 12.754 8.90936 12.8971C9.25509 13.0401 9.6038 13.1117 9.9555 13.1117C10.331 13.1117 10.6887 13.0372 11.0285 12.8881C11.3742 12.7391 11.6603 12.5454 11.8868 12.3069C12.0358 12.1579 12.1879 12.0834 12.3428 12.0834C12.5038 12.0834 12.6379 12.1371 12.7452 12.2444C12.8585 12.3457 12.9151 12.4768 12.9151 12.6378C12.9151 12.7272 12.9002 12.8077 12.8704 12.8792C12.8406 12.9507 12.7988 13.0133 12.7452 13.067C12.3816 13.4306 11.9524 13.7197 11.4576 13.9343C10.9688 14.1429 10.4681 14.2472 9.9555 14.2472Z" fill="#808B9B"/>
</svg>
