<svg width="16" height="18" viewBox="0 0 16 18" fill="none" xmlns="http://www.w3.org/2000/svg">
<path fill-rule="evenodd" clip-rule="evenodd" d="M3.84097 1.29115C7.45523 -1.17724 12.6672 0.141997 14.5859 4.09667C14.7821 4.50095 14.6151 4.98851 14.2129 5.18568C13.8107 5.38285 13.3256 5.21496 13.1296 4.81068C11.6551 1.77161 7.57181 0.712372 4.75158 2.63845C4.38147 2.89122 3.87759 2.79453 3.62613 2.42248C3.37467 2.05044 3.47086 1.54392 3.84097 1.29115ZM7.18981 4.11323C7.18981 3.66344 7.55256 3.29881 7.99998 3.29881C10.2741 3.29881 12.0509 5.23277 12.0509 7.53377C12.0509 7.9836 11.6881 8.34819 11.2407 8.34819C10.7932 8.34819 10.4306 7.9836 10.4306 7.53377C10.4306 6.05655 9.30556 4.92765 7.99998 4.92765C7.55256 4.92765 7.18981 4.56301 7.18981 4.11323ZM2.4842 3.74183C2.88712 3.93745 3.056 4.42436 2.8614 4.82939C2.51965 5.54066 2.32868 6.33441 2.32868 7.17346V10.7999C2.32868 12.6695 3.27997 14.3298 4.75158 15.3349C5.1217 15.5876 5.21788 16.0941 4.96642 16.4662C4.71496 16.8382 4.21109 16.9349 3.84097 16.6821C1.95428 15.3936 0.708313 13.2433 0.708313 10.7999V7.17346C0.708313 6.08278 0.957171 5.04741 1.4023 4.12099C1.5969 3.71596 2.08129 3.54621 2.4842 3.74183ZM5.40506 5.32582C5.81274 5.51122 5.9937 5.99373 5.80925 6.40354C5.65619 6.74363 5.56942 7.12633 5.56942 7.53377V10.4657C5.56942 11.9429 6.6944 13.0719 7.99998 13.0719C9.30556 13.0719 10.4306 11.9429 10.4306 10.4657C10.4306 10.0159 10.7932 9.65127 11.2407 9.65127C11.6881 9.65127 12.0509 10.0159 12.0509 10.4657C12.0509 12.7667 10.2741 14.7007 7.99998 14.7007C5.72592 14.7007 3.94905 12.7667 3.94905 10.4657V7.53377C3.94905 6.892 4.08608 6.28064 4.33295 5.73212C4.5174 5.32232 4.9974 5.14041 5.40506 5.32582ZM14.4815 6.82796C14.9289 6.82796 15.2916 7.19258 15.2916 7.64236V10.7999C15.2916 15.1378 11.251 18.489 6.96223 17.8884C6.51906 17.8263 6.20987 17.4149 6.27162 16.9694C6.3334 16.5239 6.74265 16.213 7.18581 16.2751C10.5562 16.7471 13.6713 14.0928 13.6713 10.7999V7.64236C13.6713 7.19258 14.034 6.82796 14.4815 6.82796ZM7.99998 6.96369C8.4474 6.96369 8.81015 7.32831 8.81015 7.77811V10.2214C8.81015 10.6712 8.4474 11.0358 7.99998 11.0358C7.55256 11.0358 7.18981 10.6712 7.18981 10.2214V7.77811C7.18981 7.32831 7.55256 6.96369 7.99998 6.96369Z" fill="#707A8A"/>
</svg>
