<svg width="20" height="20" viewBox="0 0 20 20" fill="none" xmlns="http://www.w3.org/2000/svg">
<path fill-rule="evenodd" clip-rule="evenodd" d="M7.70825 13.3335C7.70825 16.4401 10.2267 18.9585 13.3333 18.9585C16.4398 18.9585 18.9583 16.4401 18.9583 13.3335C18.9583 10.2269 16.4398 7.7085 13.3333 7.7085C10.2267 7.7085 7.70825 10.2269 7.70825 13.3335ZM16.0013 11.4462C16.1233 11.769 15.9603 12.1297 15.6375 12.2517C15.3811 12.3485 15.0723 12.5631 14.7348 12.8787C14.4047 13.1875 14.082 13.5599 13.7949 13.927C13.5091 14.2926 13.266 14.643 13.0943 14.9026C12.9638 15.0957 12.8628 15.2614 12.8286 15.3202C12.7102 15.5188 12.4917 15.636 12.2608 15.6246C12.0297 15.6132 11.8238 15.4751 11.7257 15.2656C11.4984 14.7808 11.2995 14.5987 11.2133 14.5375C11.1919 14.5222 11.176 14.5134 11.1664 14.5087C10.8608 14.4679 10.6249 14.2061 10.6249 13.8892C10.6249 13.5441 10.9048 13.2642 11.2499 13.2642C11.3019 13.2652 11.4291 13.2754 11.5217 13.3087C11.6433 13.3458 11.7855 13.4106 11.9377 13.5187C12.0563 13.6032 12.1778 13.7115 12.299 13.8493C12.4465 13.6383 12.6192 13.4013 12.8103 13.157C13.1206 12.7602 13.4873 12.334 13.8809 11.9657C14.2673 11.6042 14.7168 11.2632 15.1957 11.0823C15.5186 10.9603 15.8793 11.1232 16.0013 11.4462Z" fill="#61F0FE"/>
<path d="M14.1096 1.0415C14.8388 1.0415 15.4407 1.04148 15.929 1.08489C16.4369 1.13003 16.9016 1.22712 17.3297 1.46948C17.8248 1.74985 18.2361 2.15311 18.522 2.63873C18.7692 3.05851 18.8682 3.51412 18.9142 4.0122C18.9584 4.49113 18.9584 5.08129 18.9584 5.79642V5.84278C18.9584 6.30155 18.9584 6.70498 18.9481 7.05425C18.935 7.49513 18.56 7.84215 18.1104 7.82936C17.6608 7.81657 17.3069 7.4488 17.32 7.00792C17.3296 6.68426 17.3297 6.30345 17.3297 5.83317C17.3297 5.07208 17.3288 4.55465 17.292 4.15637C17.2562 3.76907 17.1916 3.5735 17.1114 3.43734C16.9684 3.19453 16.7628 2.9929 16.5152 2.85271C16.3763 2.7741 16.1769 2.7107 15.782 2.67559C15.3758 2.6395 14.8482 2.63873 14.0721 2.63873H5.92811C5.15198 2.63873 4.62433 2.6395 4.21817 2.67559C3.82322 2.7107 3.62379 2.7741 3.48493 2.85271C3.23732 2.9929 3.03171 3.19453 2.88876 3.43734C2.80858 3.57351 2.74392 3.76907 2.70813 4.15637C2.67131 4.55465 2.67054 5.07208 2.67054 5.83317C2.67054 6.59426 2.67131 7.11169 2.70813 7.50997C2.74392 7.89727 2.80858 8.09283 2.88876 8.229C3.03171 8.47184 3.23732 8.67342 3.48493 8.81359C3.62379 8.89225 3.82322 8.95567 4.21817 8.99075C4.62433 9.02684 5.15198 9.02759 5.92811 9.02759H6.33531C6.78509 9.02759 7.14971 9.38517 7.14971 9.82625C7.14971 10.2673 6.78509 10.6248 6.33531 10.6248H5.89061C5.16137 10.6248 4.55953 10.6248 4.07116 10.5814C3.56323 10.5363 3.09861 10.4393 2.67054 10.1968C2.17532 9.9165 1.76409 9.51325 1.47818 9.02759C1.23103 8.60784 1.13202 8.15222 1.08599 7.65414C1.04172 7.17522 1.04174 6.58508 1.04175 5.86995V5.7964C1.04174 5.08128 1.04172 4.49112 1.08599 4.0122C1.13202 3.51412 1.23103 3.05851 1.47818 2.63873C1.76409 2.15311 2.17532 1.74985 2.67054 1.46948C3.09861 1.22712 3.56323 1.13003 4.07116 1.08489C4.55954 1.04148 5.16135 1.0415 5.8906 1.0415H14.1096Z" fill="#61F0FE"/>
<path fill-rule="evenodd" clip-rule="evenodd" d="M5 5.83333C5 5.3731 5.3731 5 5.83333 5H5.84082C6.30106 5 6.67415 5.3731 6.67415 5.83333C6.67415 6.29357 6.30106 6.66667 5.84082 6.66667H5.83333C5.3731 6.66667 5 6.29357 5 5.83333ZM9.16671 5.83333C9.16671 5.3731 9.53979 5 10 5H10.0075C10.4677 5 10.8408 5.3731 10.8408 5.83333C10.8408 6.29357 10.4677 6.66667 10.0075 6.66667H10C9.53979 6.66667 9.16671 6.29357 9.16671 5.83333ZM13.3334 5.83333C13.3334 5.3731 13.7065 5 14.1667 5H14.1741C14.6344 5 15.0075 5.3731 15.0075 5.83333C15.0075 6.29357 14.6344 6.66667 14.1741 6.66667H14.1667C13.7065 6.66667 13.3334 6.29357 13.3334 5.83333Z" fill="#61F0FE"/>
</svg>
