<svg width="20" height="20" viewBox="0 0 20 20" fill="none" xmlns="http://www.w3.org/2000/svg">
<path d="M9.75403 5.50781C7.26965 5.50781 5.26575 7.51172 5.26575 9.99609C5.26575 12.4805 7.26965 14.4844 9.75403 14.4844C12.2384 14.4844 14.2423 12.4805 14.2423 9.99609C14.2423 7.51172 12.2384 5.50781 9.75403 5.50781ZM9.75403 12.9141C8.14856 12.9141 6.83606 11.6055 6.83606 9.99609C6.83606 8.38672 8.14465 7.07812 9.75403 7.07812C11.3634 7.07812 12.672 8.38672 12.672 9.99609C12.672 11.6055 11.3595 12.9141 9.75403 12.9141ZM15.4728 5.32422C15.4728 5.90625 15.004 6.37109 14.4259 6.37109C13.8439 6.37109 13.379 5.90234 13.379 5.32422C13.379 4.74609 13.8478 4.27734 14.4259 4.27734C15.004 4.27734 15.4728 4.74609 15.4728 5.32422ZM18.4454 6.38672C18.379 4.98438 18.0587 3.74219 17.0314 2.71875C16.0079 1.69531 14.7657 1.375 13.3634 1.30469C11.9181 1.22266 7.58606 1.22266 6.14075 1.30469C4.74231 1.37109 3.50012 1.69141 2.47278 2.71484C1.44543 3.73828 1.12903 4.98047 1.05872 6.38281C0.976685 7.82812 0.976685 12.1602 1.05872 13.6055C1.12512 15.0078 1.44543 16.25 2.47278 17.2734C3.50012 18.2969 4.7384 18.6172 6.14075 18.6875C7.58606 18.7695 11.9181 18.7695 13.3634 18.6875C14.7657 18.6211 16.0079 18.3008 17.0314 17.2734C18.0548 16.25 18.3751 15.0078 18.4454 13.6055C18.5275 12.1602 18.5275 7.83203 18.4454 6.38672ZM16.5782 15.1562C16.2736 15.9219 15.6837 16.5117 14.9142 16.8203C13.7618 17.2773 11.0275 17.1719 9.75403 17.1719C8.48059 17.1719 5.74231 17.2734 4.59387 16.8203C3.82825 16.5156 3.2384 15.9258 2.92981 15.1562C2.47278 14.0039 2.57825 11.2695 2.57825 9.99609C2.57825 8.72266 2.47668 5.98438 2.92981 4.83594C3.2345 4.07031 3.82434 3.48047 4.59387 3.17187C5.74622 2.71484 8.48059 2.82031 9.75403 2.82031C11.0275 2.82031 13.7657 2.71875 14.9142 3.17187C15.6798 3.47656 16.2697 4.06641 16.5782 4.83594C17.0353 5.98828 16.9298 8.72266 16.9298 9.99609C16.9298 11.2695 17.0353 14.0078 16.5782 15.1562Z" fill="#707A8A"/>
</svg>
