<svg width="20" height="20" viewBox="0 0 20 20" fill="none" xmlns="http://www.w3.org/2000/svg">
<path d="M16.3662 4.10601C14.7948 3.02059 12.5437 1.875 9.99999 1.875C7.45628 1.875 5.20518 3.02059 3.63382 4.10601C2.84019 4.65419 2.19903 5.20149 1.75522 5.61262C1.53867 5.81322 1.18468 6.17658 1.05565 6.30903L1.04583 6.3191C0.738818 6.66197 0.767883 7.18881 1.11075 7.49583C1.45339 7.80263 1.97974 7.77381 2.28684 7.4316L2.28749 7.43088C2.38961 7.32608 2.68847 7.01999 2.88783 6.8353C3.2874 6.46518 3.86663 5.97081 4.58105 5.47733C6.02575 4.47941 7.94133 3.54167 9.99999 3.54167C12.0587 3.54167 13.9742 4.47941 15.4189 5.47733C16.1333 5.97081 16.7126 6.46518 17.1122 6.8353C17.3115 7.01999 17.611 7.3268 17.7132 7.4316C18.0202 7.77381 18.5466 7.80263 18.8892 7.49583C19.2321 7.18881 19.2612 6.66197 18.9542 6.3191L18.9442 6.30893C18.8151 6.1764 18.4612 5.81317 18.2447 5.61262C17.8009 5.20149 17.1597 4.65419 16.3662 4.10601Z" fill="#707A8A"/>
<path fill-rule="evenodd" clip-rule="evenodd" d="M9.99998 5.20825C7.85783 5.20825 6.02159 6.15109 4.60022 7.26074C3.17757 8.37142 2.08167 9.74492 1.49346 10.5697C1.28249 10.8631 1.04163 11.1981 1.04163 11.6666C1.04163 12.1351 1.28249 12.4701 1.49346 12.7635C2.08167 13.5883 3.17758 14.9618 4.60022 16.0724C6.02159 17.1821 7.85783 18.1249 9.99998 18.1249C12.1421 18.1249 13.9783 17.1821 15.3997 16.0724C16.8224 14.9618 17.9182 13.5883 18.5065 12.7635C18.7175 12.4701 18.9583 12.1351 18.9583 11.6666C18.9583 11.1981 18.7174 10.8631 18.5065 10.5697C17.9182 9.74492 16.8224 8.37142 15.3997 7.26074C13.9783 6.15109 12.1421 5.20825 9.99998 5.20825ZM8.33329 11.6666C8.33329 12.5871 9.07948 13.3333 9.99998 13.3333C10.9205 13.3333 11.6666 12.5871 11.6666 11.6666C11.6666 10.7461 10.9205 9.99992 9.99998 9.99992C9.07948 9.99992 8.33329 10.7461 8.33329 11.6666ZM9.99998 14.9999C8.15902 14.9999 6.66663 13.5075 6.66663 11.6666C6.66663 9.82567 8.15902 8.33325 9.99998 8.33325C11.8409 8.33325 13.3333 9.82567 13.3333 11.6666C13.3333 13.5075 11.8409 14.9999 9.99998 14.9999Z" fill="#707A8A"/>
</svg>
