<svg width="18" height="18" viewBox="0 0 18 18" fill="none" xmlns="http://www.w3.org/2000/svg">
<path d="M4.43542 17.3551H1.00862V6.31958H4.43542V17.3551ZM2.72017 4.81423C1.62439 4.81423 0.735596 3.9066 0.735596 2.81079C0.735596 2.28444 0.944685 1.77964 1.31687 1.40745C1.68905 1.03527 2.19383 0.826172 2.72017 0.826172C3.24652 0.826172 3.7513 1.03527 4.12348 1.40745C4.49566 1.77964 4.70475 2.28444 4.70475 2.81079C4.70475 3.9066 3.81558 4.81423 2.72017 4.81423ZM17.2608 17.3551H13.8414V11.9831C13.8414 10.7028 13.8156 9.06093 12.0598 9.06093C10.2781 9.06093 10.0051 10.4519 10.0051 11.8908V17.3551H6.58196V6.31958H9.86856V7.82493H9.91653C10.374 6.95788 11.4916 6.04286 13.1589 6.04286C16.627 6.04286 17.2645 8.32671 17.2645 11.2931V17.3551H17.2608Z" fill="#707A8A"/>
</svg>
