<svg width="16" height="18" viewBox="0 0 16 18" fill="none" xmlns="http://www.w3.org/2000/svg">
<path fill-rule="evenodd" clip-rule="evenodd" d="M8.00004 1.70841C6.38921 1.70841 5.08337 3.01425 5.08337 4.62508V5.92521C6.01482 5.89215 6.97121 5.87508 8.00004 5.87508C9.02887 5.87508 9.98529 5.89215 10.9167 5.92521V4.62508C10.9167 3.01425 9.61087 1.70841 8.00004 1.70841ZM3.41671 4.62508V6.10601C2.11032 6.5058 1.12442 7.65516 0.937141 9.04608C0.813674 9.96308 0.708374 10.9266 0.708374 11.9167C0.708374 12.9069 0.813674 13.8704 0.937141 14.7874C1.16345 16.4682 2.55601 17.7963 4.27106 17.8752C5.46141 17.9299 6.67021 17.9584 8.00004 17.9584C9.32987 17.9584 10.5387 17.9299 11.729 17.8752C13.444 17.7963 14.8366 16.4682 15.063 14.7874C15.1864 13.8704 15.2917 12.9069 15.2917 11.9167C15.2917 10.9266 15.1864 9.96308 15.063 9.04608C14.8757 7.65516 13.8898 6.5058 12.5834 6.10601V4.62508C12.5834 2.09377 10.5314 0.041748 8.00004 0.041748C5.46873 0.041748 3.41671 2.09377 3.41671 4.62508ZM8.83337 11.0834C8.83337 10.6232 8.46029 10.2501 8.00004 10.2501C7.53979 10.2501 7.16671 10.6232 7.16671 11.0834V12.7501C7.16671 13.2103 7.53979 13.5834 8.00004 13.5834C8.46029 13.5834 8.83337 13.2103 8.83337 12.7501V11.0834Z" fill="#808B9B"/>
</svg>
