<!DOCTYPE svg PUBLIC "-//W3C//DTD SVG 1.1//EN" "http://www.w3.org/Graphics/SVG/1.1/DTD/svg11.dtd">
<!-- Uploaded to: SVG Repo, www.svgrepo.com, Transformed by: SVG Repo Mixer Tools -->
<svg width="800px" height="800px" viewBox="0 0 64 64" data-name="Layer 1" id="Layer_1" xmlns="http://www.w3.org/2000/svg" fill="#000000">
<g id="SVGRepo_bgCarrier" stroke-width="0"/>
<g id="SVGRepo_tracerCarrier" stroke-linecap="round" stroke-linejoin="round"/>
<g id="SVGRepo_iconCarrier">
<defs>
<style>.cls-1{fill:#1ADEF5;}</style>
</defs>
<title/>
<path class="cls-1" d="M18,6.5A1.5,1.5,0,1,0,16.5,5,1.5,1.5,0,0,0,18,6.5Zm0-2a.5.5,0,1,1-.5.5A.5.5,0,0,1,18,4.5Z"/>
<circle class="cls-1" cx="22" cy="5" r="1"/>
<circle class="cls-1" cx="14" cy="5" r="1"/>
<path class="cls-1" d="M59,15H35V5a5,5,0,0,0-5-5H6A5,5,0,0,0,1,5V8A1,1,0,0,0,0,9v4a1,1,0,0,0,1,1v3a1,1,0,0,0-1,1v4a1,1,0,0,0,1,1V59a5,5,0,0,0,5,5H30a5,5,0,0,0,5-5V53l3.53-3.19a3,3,0,0,1,2-.77H59a5.1,5.1,0,0,0,1-.11h0a5.28,5.28,0,0,0,1-.33h0l.06,0A5,5,0,0,0,64,44V20A5,5,0,0,0,59,15ZM22,49h2A3,3,0,0,1,27,51.5H3V5.5H6A3.45,3.45,0,0,1,8.65,6.85,4.34,4.34,0,0,0,12,8.5H24a4.34,4.34,0,0,0,3.35-1.65A3.45,3.45,0,0,1,30,5.5h3V15H22a5,5,0,0,0-5,5V44A5,5,0,0,0,22,49ZM6,2H30a3,3,0,0,1,3,2.5H30a4.34,4.34,0,0,0-3.35,1.65A3.45,3.45,0,0,1,24,7.5H12A3.45,3.45,0,0,1,9.35,6.15,4.34,4.34,0,0,0,6,4.5H3.05A3,3,0,0,1,6,2ZM33,59a3,3,0,0,1-3,3H6a3,3,0,0,1-3-3V52.5H27v3.75a1.73,1.73,0,0,0,1,1.58,1.33,1.33,0,0,0,.43.13l.13,0,.18,0,.09,0a1.67,1.67,0,0,0,.38-.06l.17-.05a2.06,2.06,0,0,0,.51-.3L33,54.76ZM50.09,47l-5.71-5.7a2.93,2.93,0,0,0-2.73-.8A7.9,7.9,0,0,1,38,40.41a8.07,8.07,0,0,1-5.7-5.7,7.57,7.57,0,0,1-.21-2.91l3,3a3.07,3.07,0,0,0,4.24,0L42.12,32a3,3,0,0,0,0-4.24l-3-3a7.83,7.83,0,0,1,2.92.22,8.08,8.08,0,0,1,5.7,5.7,7.9,7.9,0,0,1,.08,3.68,3,3,0,0,0,.81,2.74L58.57,47ZM62,44a3,3,0,0,1-1.21,2.39L50,35.65a1,1,0,0,1-.26-.91,9.86,9.86,0,0,0-.11-4.61A10.11,10.11,0,0,0,42.54,23a10.24,10.24,0,0,0-3.65-.27,2,2,0,0,0-1.18,3.41l3,3a1,1,0,0,1,.29.7,1,1,0,0,1-.29.71l-2.83,2.83a1,1,0,0,1-1.42,0l-3-3a2,2,0,0,0-3.41,1.18,9.82,9.82,0,0,0,.27,3.65,10.1,10.1,0,0,0,7.14,7.13,9.81,9.81,0,0,0,4.6.11,1,1,0,0,1,.9.26L47.26,47H40.54a5,5,0,0,0-3.35,1.29l-3.86,3.48h0L29,55.68V52a5,5,0,0,0-5-5H22a3,3,0,0,1-3-3V20a3,3,0,0,1,3-3H59a3,3,0,0,1,3,3Z"/>
<path class="cls-1" d="M35.77,27l-1.42,1.41a1.51,1.51,0,0,0,0,2.12L35.77,32a1.45,1.45,0,0,0,1.06.44A1.47,1.47,0,0,0,37.89,32l1.41-1.41a1.49,1.49,0,0,0,0-2.12L37.89,27A1.49,1.49,0,0,0,35.77,27Zm2.83,2.12a.5.5,0,0,1,0,.7l-1.42,1.42a.51.51,0,0,1-.71,0l-1.41-1.42a.5.5,0,0,1,0-.7l1.41-1.42a.54.54,0,0,1,.36-.14.52.52,0,0,1,.35.14Z"/>
<path class="cls-1" d="M37,18.5a.5.5,0,0,0-.5.5v2a.5.5,0,0,0,1,0V19A.5.5,0,0,0,37,18.5Z"/>
<path class="cls-1" d="M35,21.5a.47.47,0,0,0,.35-.15.48.48,0,0,0,0-.7l-1-1a.49.49,0,0,0-.7.7l1,1A.47.47,0,0,0,35,21.5Z"/>
<path class="cls-1" d="M9,53.5A3.5,3.5,0,1,0,12.5,57,3.5,3.5,0,0,0,9,53.5Zm0,6A2.5,2.5,0,1,1,11.5,57,2.5,2.5,0,0,1,9,59.5Z"/>
<path class="cls-1" d="M26,58.5H17a1.5,1.5,0,0,1,0-3h8a.5.5,0,0,0,0-1H17a2.5,2.5,0,0,0,0,5h9a.5.5,0,0,0,0-1Z"/>
</g>
</svg>