<svg width="49" height="48" viewBox="0 0 49 48" fill="none" xmlns="http://www.w3.org/2000/svg">
<path fill-rule="evenodd" clip-rule="evenodd" d="M16.3741 21.9638C15.5102 21.1 14.4201 20.518 13.1894 20.5004C11.9487 20.4826 10.8195 21.042 9.89766 21.9638L8.44594 23.4156C4.33344 27.528 3.90194 33.9276 7.15144 38.5202L3.58578 42.0858C2.80474 42.8668 2.80474 44.1332 3.58578 44.9142C4.36684 45.6952 5.63316 45.6952 6.41422 44.9142L9.97986 41.3486C14.5723 44.598 20.972 44.1666 25.0844 40.054L26.5362 38.6024C27.4 37.7384 27.982 36.6484 27.9996 35.4176C28.0174 34.177 27.458 33.0478 26.5362 32.1258L16.3741 21.9638Z" fill="#707A8A"/>
<path opacity="0.4" fill-rule="evenodd" clip-rule="evenodd" d="M45.4142 5.91422L41.8486 9.47986C45.098 14.0723 44.6666 20.472 40.554 24.5844L39.1024 26.0362C38.2384 26.9 37.1484 27.482 35.9176 27.4996C34.677 27.5174 33.5478 26.958 32.6258 26.0362L32.5982 26.0084L30.6532 27.9532C29.9242 28.6822 28.7424 28.6822 28.0134 27.9532C27.2844 27.2242 27.2844 26.0424 28.0134 25.3134L29.9582 23.3686L25.1314 18.5417L23.1866 20.4866C22.4576 21.2156 21.2758 21.2156 20.5468 20.4866C19.8177 19.7576 19.8177 18.5757 20.5468 17.8467L22.4916 15.9019L22.4638 15.8741C21.6 15.0102 21.018 13.9201 21.0004 12.6894C20.9826 11.4487 21.542 10.3195 22.4638 9.39766L23.9156 7.94594C28.028 3.83344 34.4276 3.40194 39.0202 6.65144L42.5858 3.08578C43.3668 2.30474 44.6332 2.30474 45.4142 3.08578C46.1952 3.86684 46.1952 5.13316 45.4142 5.91422Z" fill="#707A8A"/>
</svg>
