<svg width="18" height="18" viewBox="0 0 18 18" fill="none" xmlns="http://www.w3.org/2000/svg">
<path fill-rule="evenodd" clip-rule="evenodd" d="M9.00008 17.9582C4.05253 17.9582 0.041748 13.9474 0.041748 8.99984C0.041748 4.05229 4.05253 0.0415039 9.00008 0.0415039C13.9477 0.0415039 17.9584 4.05229 17.9584 8.99984C17.9584 13.9474 13.9477 17.9582 9.00008 17.9582ZM9.83341 5.6665C9.83341 5.20627 9.46033 4.83317 9.00008 4.83317C8.53983 4.83317 8.16675 5.20627 8.16675 5.6665V8.1665H5.66675C5.20651 8.1665 4.83341 8.53959 4.83341 8.99984C4.83341 9.46009 5.20651 9.83317 5.66675 9.83317H8.16675V12.3332C8.16675 12.7934 8.53983 13.1665 9.00008 13.1665C9.46033 13.1665 9.83341 12.7934 9.83341 12.3332V9.83317H12.3334C12.7937 9.83317 13.1667 9.46009 13.1667 8.99984C13.1667 8.53959 12.7937 8.1665 12.3334 8.1665H9.83341V5.6665Z" fill="#61F0FE"/>
</svg>
