<svg width="18" height="18" viewBox="0 0 18 18" fill="none" xmlns="http://www.w3.org/2000/svg">
<path fill-rule="evenodd" clip-rule="evenodd" d="M9.88033 0.0417484C11.4118 0.0417318 12.6248 0.0417234 13.5742 0.169365C14.5512 0.300715 15.342 0.577482 15.9657 1.20112C16.5893 1.82476 16.866 2.61555 16.9974 3.59257C17.125 4.5419 17.125 5.75491 17.125 7.28636V10.7137C17.125 12.2452 17.125 13.4582 16.9974 14.4076C16.866 15.3846 16.5893 16.1754 15.9657 16.7991C15.342 17.4227 14.5512 17.6994 13.5742 17.8308C12.6248 17.9584 11.4118 17.9584 9.88042 17.9584H8.11967C6.58825 17.9584 5.37515 17.9584 4.42582 17.8308C3.4488 17.6994 2.65801 17.4227 2.03437 16.7991C1.41073 16.1754 1.13397 15.3846 1.00262 14.4076C0.874975 13.4582 0.874984 12.2452 0.875 10.7137V7.2864C0.874984 5.75494 0.874975 4.54191 1.00262 3.59257C1.13397 2.61555 1.41073 1.82476 2.03437 1.20112C2.65801 0.577482 3.4488 0.300715 4.42582 0.169365C5.37516 0.0417234 6.58818 0.0417318 8.11967 0.0417484H9.88033ZM9.77483 10.1596C10.0189 10.4037 10.4146 10.4037 10.6587 10.1596L12.7751 8.04325C13.0192 7.79916 13.0192 7.40341 12.7751 7.15933C12.6393 7.02356 12.4567 6.96331 12.2792 6.97859C12.2142 6.98418 12.1475 6.96442 12.106 6.9141C12.0696 6.86997 12.0315 6.82401 11.9919 6.77656C11.6535 6.37096 11.1967 5.84552 10.7381 5.38684C10.2794 4.92816 9.75392 4.47141 9.34833 4.13298C9.30092 4.09338 9.25492 4.0553 9.21083 4.01892C9.1605 3.97744 9.14075 3.91063 9.14633 3.84567C9.16158 3.66826 9.10133 3.48557 8.96558 3.34981C8.7215 3.10573 8.32575 3.10573 8.08167 3.34981L5.96528 5.46621C5.72121 5.71029 5.72121 6.10602 5.96528 6.35009C6.10105 6.48586 6.28373 6.54611 6.46114 6.53083C6.52611 6.52524 6.59293 6.54501 6.63439 6.59532C6.67078 6.63947 6.70887 6.68541 6.74847 6.73286C6.91572 6.93332 7.11189 7.16306 7.32291 7.39958C7.38208 7.46583 7.37958 7.56683 7.31679 7.62966L5.28574 9.66066C4.96031 9.98616 4.96031 10.5137 5.28574 10.8392C5.61118 11.1647 6.13882 11.1647 6.46426 10.8392L8.49533 8.80816C8.55808 8.74533 8.65917 8.74291 8.72542 8.802C8.96183 9.013 9.19158 9.20916 9.392 9.37641C9.4395 9.416 9.48542 9.45408 9.52958 9.4905C9.57992 9.532 9.59967 9.59883 9.59408 9.66375C9.57883 9.84116 9.63908 10.0238 9.77483 10.1596ZM5.66667 13.1667C5.20643 13.1667 4.83333 13.5398 4.83333 14.0001C4.83333 14.4603 5.20643 14.8334 5.66667 14.8334H12.3333C12.7936 14.8334 13.1667 14.4603 13.1667 14.0001C13.1667 13.5398 12.7936 13.1667 12.3333 13.1667H5.66667Z" fill="#808B9B"/>
</svg>
