<svg width="20" height="18" viewBox="0 0 20 18" fill="none" xmlns="http://www.w3.org/2000/svg">
<path d="M17.1992 6.94897C16.6133 6.94897 16.0977 7.19116 15.7188 7.57007C14.3242 6.60522 12.4453 5.98413 10.3633 5.91773L11.4453 1.04272L14.8906 1.81616C14.8906 2.65991 15.5781 3.34741 16.4219 3.34741C17.2813 3.34741 17.9727 2.64038 17.9727 1.79663C17.9727 0.952881 17.2852 0.24585 16.4219 0.24585C15.8203 0.24585 15.3008 0.609131 15.043 1.10522L11.2383 0.261475C11.0469 0.210693 10.8594 0.347412 10.8086 0.538818L9.62111 5.91382C7.5547 5.99976 5.69532 6.62085 4.29689 7.58569C3.91798 7.19116 3.38282 6.94897 2.79689 6.94897C0.625012 6.94897 -0.0859259 9.86304 1.90236 10.8591C1.83204 11.1677 1.80079 11.4958 1.80079 11.824C1.80079 15.0974 5.48829 17.7498 10.0156 17.7498C14.5625 17.7498 18.25 15.0974 18.25 11.824C18.25 11.4958 18.2149 11.1521 18.1289 10.8435C20.0781 9.84351 19.3594 6.94897 17.1992 6.94897ZM5.0547 11.0662C5.0547 10.2068 5.7422 9.51538 6.60548 9.51538C7.44923 9.51538 8.13673 10.2029 8.13673 11.0662C8.13673 11.9099 7.44923 12.5974 6.60548 12.5974C5.74611 12.6013 5.0547 11.9099 5.0547 11.0662ZM13.4258 14.7185C12.0039 16.1404 7.9922 16.1404 6.57032 14.7185C6.41407 14.5818 6.41407 14.3396 6.57032 14.1834C6.70704 14.0466 6.94923 14.0466 7.08595 14.1834C8.17189 15.2966 11.7734 15.3162 12.9063 14.1834C13.043 14.0466 13.2852 14.0466 13.4219 14.1834C13.582 14.3396 13.582 14.5818 13.4258 14.7185ZM13.3945 12.6013C12.5508 12.6013 11.8633 11.9138 11.8633 11.0701C11.8633 10.2107 12.5508 9.51929 13.3945 9.51929C14.2539 9.51929 14.9453 10.2068 14.9453 11.0701C14.9414 11.9099 14.2539 12.6013 13.3945 12.6013Z" fill="#707A8A"/>
</svg>
