<svg width="20" height="20" viewBox="0 0 20 20" fill="none" xmlns="http://www.w3.org/2000/svg">
<path fill-rule="evenodd" clip-rule="evenodd" d="M7.65463 2.0421C7.67742 2.50177 7.32325 2.89288 6.86357 2.91567C5.13693 3.00123 4.33286 3.25676 3.79481 3.79481C3.25676 4.33286 3.00123 5.13693 2.91566 6.86357C2.89288 7.32325 2.50177 7.67742 2.0421 7.65464C1.58242 7.63186 1.22826 7.24075 1.25104 6.78108C1.3389 5.00818 1.60222 3.63037 2.6163 2.6163C3.63037 1.60222 5.00818 1.33891 6.78107 1.25104C7.24075 1.22826 7.63186 1.58243 7.65463 2.0421ZM12.3454 2.0421C12.3682 1.58243 12.7593 1.22826 13.2189 1.25104C14.9918 1.33891 16.3697 1.60222 17.3838 2.6163C18.3979 3.63037 18.6611 5.00818 18.749 6.78108C18.7718 7.24075 18.4176 7.63186 17.9579 7.65464C17.4983 7.67742 17.1072 7.32325 17.0843 6.86357C16.9988 5.13693 16.7433 4.33286 16.2053 3.79481C15.6672 3.25676 14.8631 3.00123 13.1364 2.91567C12.6768 2.89288 12.3226 2.50177 12.3454 2.0421ZM2.0421 12.3454C2.50177 12.3226 2.89288 12.6767 2.91566 13.1365C3.00123 14.8631 3.25676 15.6672 3.79481 16.2052C4.33286 16.7432 5.13693 16.9988 6.86357 17.0843C7.32324 17.1072 7.67742 17.4982 7.65463 17.9579C7.63185 18.4176 7.24074 18.7717 6.78107 18.749C5.00818 18.6612 3.63037 18.3978 2.6163 17.3837C1.60222 16.3697 1.3389 14.9918 1.25104 13.219C1.22826 12.7592 1.58242 12.3682 2.0421 12.3454ZM17.9579 12.3454C18.4176 12.3682 18.7718 12.7592 18.749 13.219C18.6611 14.9918 18.3979 16.3697 17.3838 17.3837C16.3697 18.3978 14.9918 18.6612 13.2189 18.749C12.7593 18.7717 12.3682 18.4176 12.3454 17.9579C12.3226 17.4982 12.6768 17.1072 13.1364 17.0843C14.8631 16.9988 15.6672 16.7432 16.2053 16.2052C16.7433 15.6672 16.9988 14.8631 17.0843 13.1365C17.1072 12.6767 17.4983 12.3226 17.9579 12.3454Z" fill="#707A8A"/>
<path d="M5 10H15" stroke="#707A8A" stroke-width="1.66667" stroke-linecap="round"/>
</svg>
