<svg width="20" height="20" viewBox="0 0 20 20" fill="none" xmlns="http://www.w3.org/2000/svg">
<g clip-path="url(#clip0_1587_2411)">
<path d="M9.6875 0.3125C4.33723 0.3125 0 4.64973 0 10C0 15.3503 4.33723 19.6875 9.6875 19.6875C15.0378 19.6875 19.375 15.3503 19.375 10C19.375 4.64973 15.0378 0.3125 9.6875 0.3125ZM14.1778 6.90078C14.032 8.43262 13.4012 12.1499 13.0802 13.8656C12.9444 14.5916 12.677 14.835 12.4181 14.8588C11.8556 14.9106 11.4284 14.487 10.8835 14.1298C10.0309 13.5709 9.54918 13.223 8.72152 12.6776C7.76508 12.0473 8.38512 11.7011 8.9302 11.1346C9.07285 10.9865 11.5516 8.73191 11.5995 8.52738C11.6055 8.5018 11.6112 8.40629 11.5545 8.35613C11.4977 8.30598 11.4142 8.32297 11.3539 8.3366C11.2684 8.35603 9.90629 9.25632 7.26762 11.0375C6.88103 11.3029 6.53085 11.4323 6.21707 11.4255C5.87117 11.418 5.20582 11.23 4.71117 11.0691C4.10449 10.872 3.6223 10.7677 3.6643 10.4328C3.68617 10.2583 3.92641 10.0799 4.385 9.89762C7.20911 8.6672 9.09229 7.856 10.0345 7.46402C12.7248 6.345 13.2839 6.15062 13.6482 6.14414C13.7284 6.14281 13.9076 6.16266 14.0236 6.25684C14.1008 6.32393 14.15 6.41755 14.1615 6.51918C14.1812 6.64537 14.1867 6.77337 14.1778 6.90078Z" fill="#707A8A"/>
</g>
<defs>
<clipPath id="clip0_1587_2411">
<rect width="19.375" height="20" fill="white"/>
</clipPath>
</defs>
</svg>
