<svg width="18" height="20" viewBox="0 0 18 20" fill="none" xmlns="http://www.w3.org/2000/svg">
<path d="M17.5238 8.28523C15.8859 8.28914 14.2882 7.77836 12.9564 6.82503V13.4738C12.956 14.7053 12.5796 15.9072 11.8776 16.919C11.1756 17.9307 10.1814 18.704 9.02808 19.1355C7.87472 19.567 6.61711 19.6361 5.42343 19.3335C4.22974 19.031 3.15687 18.3712 2.34828 17.4424C1.53968 16.5137 1.0339 15.3602 0.898572 14.1362C0.763241 12.9122 1.00481 11.6761 1.59097 10.5931C2.17713 9.51016 3.07995 8.63194 4.1787 8.07592C5.27746 7.51989 6.51978 7.31257 7.73955 7.48166V10.8258C7.18138 10.6502 6.58201 10.6555 6.02702 10.8409C5.47204 11.0263 4.98983 11.3823 4.64925 11.8581C4.30867 12.3339 4.12715 12.9051 4.13059 13.4903C4.13404 14.0754 4.32228 14.6444 4.66844 15.1162C5.0146 15.5879 5.50097 15.9383 6.0581 16.1171C6.61523 16.2959 7.21462 16.2942 7.77068 16.112C8.32675 15.9299 8.81104 15.5767 9.1544 15.1029C9.49776 14.6291 9.68264 14.059 9.68263 13.4738V0.476074H12.9564C12.9542 0.75254 12.9773 1.02863 13.0256 1.30085C13.1394 1.90854 13.3759 2.48664 13.7208 2.99978C14.0656 3.51293 14.5115 3.95033 15.0312 4.28523C15.7706 4.7741 16.6374 5.03467 17.5238 5.03448V8.28523Z" fill="#707A8A"/>
</svg>
