<svg width="20" height="20" viewBox="0 0 20 20" fill="none" xmlns="http://www.w3.org/2000/svg">
<path d="M4.48358 6.3926C7.63585 3.30761 12.7467 3.30761 15.899 6.3926L16.2784 6.76389C16.4359 6.91813 16.4359 7.16823 16.2784 7.32248L14.9806 8.59256C14.9017 8.66969 14.7739 8.66969 14.6952 8.59256L14.1731 8.08164C11.9741 5.92947 8.40855 5.92947 6.20944 8.08164L5.65035 8.62879C5.57154 8.70592 5.44377 8.70592 5.36496 8.62879L4.06717 7.35871C3.90956 7.20446 3.90956 6.95437 4.06717 6.80012L4.48358 6.3926ZM18.5829 9.01928L19.7379 10.1497C19.8955 10.3039 19.8955 10.554 19.7379 10.7082L14.5298 15.8053C14.3723 15.9596 14.1167 15.9596 13.9591 15.8053L10.2626 12.1878C10.2232 12.1492 10.1594 12.1492 10.12 12.1878L6.42362 15.8053C6.26601 15.9596 6.01046 15.9596 5.85285 15.8053L0.644577 10.7082C0.486964 10.5539 0.486964 10.3038 0.644577 10.1496L1.79961 9.01921C1.95723 8.86496 2.21277 8.86496 2.37038 9.01921L6.06685 12.6368C6.10625 12.6754 6.17014 12.6754 6.20954 12.6368L9.90582 9.01921C10.0634 8.86496 10.319 8.86495 10.4766 9.0192L14.1731 12.6368C14.2125 12.6754 14.2764 12.6754 14.3157 12.6368L18.0122 9.01928C18.1697 8.86503 18.4253 8.86503 18.5829 9.01928Z" fill="#808B9B"/>
</svg>
