<svg width="20" height="20" viewBox="0 0 20 20" fill="none" xmlns="http://www.w3.org/2000/svg">
<path d="M19.0853 5.41947C18.8672 4.59829 18.2246 3.95155 17.4088 3.73207C15.9299 3.33325 10 3.33325 10 3.33325C10 3.33325 4.07019 3.33325 2.59133 3.73207C1.77546 3.95159 1.13289 4.59829 0.914805 5.41947C0.518555 6.9079 0.518555 10.0134 0.518555 10.0134C0.518555 10.0134 0.518555 13.1189 0.914805 14.6073C1.13289 15.4285 1.77546 16.0483 2.59133 16.2678C4.07019 16.6666 10 16.6666 10 16.6666C10 16.6666 15.9299 16.6666 17.4088 16.2678C18.2246 16.0483 18.8672 15.4285 19.0853 14.6073C19.4815 13.1189 19.4815 10.0134 19.4815 10.0134C19.4815 10.0134 19.4815 6.9079 19.0853 5.41947ZM8.06064 12.8329V7.19384L13.0169 10.0135L8.06064 12.8329Z" fill="#707A8A"/>
</svg>
